<svg width="288" height="345" viewBox="0 0 288 345" fill="none" xmlns="http://www.w3.org/2000/svg">
<path d="M39.495 345H256.7C282.025 345 296.849 305.945 281.404 279.02C281.134 278.549 280.858 278.084 280.576 277.624C274.161 267.161 265.05 259.185 261.454 246.477C256.888 230.344 262.609 211.154 257.479 195.337C251.113 175.709 231.886 171.179 221.163 155.431C213.321 143.914 210.816 127.595 205.101 113.963C196.111 92.5158 178.481 78.2596 160.312 77.7459C142.144 77.2322 124.092 90.4784 114.452 111.399C108.103 125.175 104.812 142.477 95.0271 151.832C88.9298 157.662 81.0797 159.499 75.2048 165.737C65.2269 176.33 63.8082 195.983 56.7634 210.276C44.7671 234.614 18.5275 239.881 6.43427 264.131C5.23421 266.537 4.18608 269.106 3.29792 271.802C-8.06531 306.296 11.3828 345 39.495 345Z" fill="#46ACC3"/>
<path d="M73.3667 116.632L63.8359 108.503V333.398C63.8359 339.795 67.7153 344.999 72.4841 344.999H176.863C178.228 344.999 179.334 343.515 179.334 341.684V116.632H73.3667Z" fill="#E5E0C3"/>
<path d="M179.333 116.63V341.685C179.333 343.514 178.229 344.996 176.865 344.996H72.4859C69.3681 344.996 66.6283 342.769 65.1138 339.441L178.197 116.63H179.333Z" fill="#F0EACC"/>
<path d="M159.968 116.632H67.719V101.479H159.968C156.613 106.257 156.421 111.292 159.968 116.632Z" fill="#DCCCAB"/>
<path d="M176.863 120.105H72.4841C67.7153 120.105 63.8359 114.901 63.8359 108.503C63.8359 102.106 67.7153 96.9014 72.4841 96.9014H160.904C162.269 96.9014 163.375 98.3854 163.375 100.217C163.375 102.048 162.269 103.532 160.904 103.532H72.4841C70.4403 103.532 68.7776 105.762 68.7776 108.504C68.7776 111.245 70.4403 113.476 72.4841 113.476H176.863C178.228 113.476 179.334 114.96 179.334 116.791C179.334 118.621 178.227 120.105 176.863 120.105Z" fill="#FCFBE9"/>
<path d="M87.8722 149.339H86.287C86.1933 148.883 86.0292 148.482 85.7948 148.137C85.5647 147.792 85.2835 147.502 84.9511 147.268C84.623 147.029 84.2586 146.85 83.858 146.731C83.4575 146.612 83.0399 146.552 82.6052 146.552C81.8126 146.552 81.0945 146.752 80.4511 147.153C79.8119 147.553 79.3026 148.144 78.9234 148.923C78.5484 149.703 78.3609 150.66 78.3609 151.793C78.3609 152.927 78.5484 153.884 78.9234 154.664C79.3026 155.443 79.8119 156.034 80.4511 156.434C81.0945 156.835 81.8126 157.035 82.6052 157.035C83.0399 157.035 83.4575 156.975 83.858 156.856C84.2586 156.737 84.623 156.56 84.9511 156.325C85.2835 156.087 85.5647 155.795 85.7948 155.45C86.0292 155.1 86.1933 154.7 86.287 154.248H87.8722C87.7529 154.917 87.5356 155.516 87.2203 156.044C86.9049 156.573 86.5129 157.022 86.0441 157.393C85.5754 157.759 85.0491 158.039 84.4653 158.23C83.8857 158.422 83.2657 158.518 82.6052 158.518C81.4887 158.518 80.4958 158.245 79.6265 157.7C78.7572 157.154 78.0732 156.379 77.5747 155.373C77.0761 154.367 76.8268 153.174 76.8268 151.793C76.8268 150.413 77.0761 149.22 77.5747 148.214C78.0732 147.208 78.7572 146.433 79.6265 145.887C80.4958 145.342 81.4887 145.069 82.6052 145.069C83.2657 145.069 83.8857 145.165 84.4653 145.357C85.0491 145.548 85.5754 145.83 86.0441 146.2C86.5129 146.567 86.9049 147.014 87.2203 147.543C87.5356 148.067 87.7529 148.666 87.8722 149.339ZM101.479 151.793C101.479 153.174 101.23 154.367 100.731 155.373C100.233 156.379 99.5489 157.154 98.6796 157.7C97.8103 158.245 96.8174 158.518 95.7009 158.518C94.5844 158.518 93.5915 158.245 92.7222 157.7C91.8529 157.154 91.1689 156.379 90.6704 155.373C90.1718 154.367 89.9225 153.174 89.9225 151.793C89.9225 150.413 90.1718 149.22 90.6704 148.214C91.1689 147.208 91.8529 146.433 92.7222 145.887C93.5915 145.342 94.5844 145.069 95.7009 145.069C96.8174 145.069 97.8103 145.342 98.6796 145.887C99.5489 146.433 100.233 147.208 100.731 148.214C101.23 149.22 101.479 150.413 101.479 151.793ZM99.9452 151.793C99.9452 150.66 99.7556 149.703 99.3763 148.923C99.0013 148.144 98.4921 147.553 97.8486 147.153C97.2094 146.752 96.4935 146.552 95.7009 146.552C94.9083 146.552 94.1903 146.752 93.5468 147.153C92.9076 147.553 92.3983 148.144 92.0191 148.923C91.6441 149.703 91.4566 150.66 91.4566 151.793C91.4566 152.927 91.6441 153.884 92.0191 154.664C92.3983 155.443 92.9076 156.034 93.5468 156.434C94.1903 156.835 94.9083 157.035 95.7009 157.035C96.4935 157.035 97.2094 156.835 97.8486 156.434C98.4921 156.034 99.0013 155.443 99.3763 154.664C99.7556 153.884 99.9452 152.927 99.9452 151.793ZM104.145 145.248H106.037L110.486 156.114H110.639L115.088 145.248H116.98V158.339H115.497V148.393H115.369L111.278 158.339H109.847L105.756 148.393H105.628V158.339H104.145V145.248ZM120.158 158.339V145.248H124.582C125.609 145.248 126.448 145.433 127.1 145.804C127.756 146.171 128.242 146.667 128.558 147.293C128.873 147.92 129.031 148.619 129.031 149.39C129.031 150.161 128.873 150.862 128.558 151.493C128.247 152.124 127.765 152.627 127.113 153.002C126.461 153.372 125.626 153.558 124.607 153.558H121.437V152.151H124.556C125.259 152.151 125.824 152.03 126.25 151.787C126.676 151.544 126.985 151.216 127.177 150.803C127.373 150.385 127.471 149.914 127.471 149.39C127.471 148.866 127.373 148.397 127.177 147.984C126.985 147.57 126.674 147.247 126.244 147.012C125.813 146.774 125.242 146.654 124.531 146.654H121.744V158.339H120.158ZM131.584 158.339V145.248H133.169V156.933H139.255V158.339H131.584ZM143.072 158.339H141.41L146.217 145.248H147.854L152.66 158.339H150.998L147.087 147.319H146.984L143.072 158.339ZM143.686 153.225H150.385V154.632H143.686V153.225ZM78.9234 167.248V180.339H77.3382V167.248H78.9234ZM92.4825 167.248V180.339H90.9484L83.8149 170.061H83.6871V180.339H82.1018V167.248H83.6359L90.795 177.552H90.9229V167.248H92.4825ZM94.9387 168.654V167.248H104.757V168.654H100.64V180.339H99.0551V168.654H94.9387Z" fill="#E95F5C"/>
<path d="M160.501 181.35H82.6688C81.9542 181.35 81.3743 180.573 81.3743 179.613C81.3743 178.655 81.9536 177.877 82.6688 177.877H160.501C161.215 177.877 161.795 178.654 161.795 179.613C161.795 180.573 161.215 181.35 160.501 181.35Z" fill="#E95F5C"/>
<path d="M160.501 195.25H82.6688C81.9542 195.25 81.3743 194.473 81.3743 193.513C81.3743 192.555 81.9536 191.777 82.6688 191.777H160.501C161.215 191.777 161.795 192.554 161.795 193.513C161.795 194.473 161.215 195.25 160.501 195.25Z" fill="#E95F5C"/>
<path d="M160.501 209.15H82.6688C81.9542 209.15 81.3743 208.373 81.3743 207.413C81.3743 206.455 81.9536 205.677 82.6688 205.677H160.501C161.215 205.677 161.795 206.454 161.795 207.413C161.795 208.373 161.215 209.15 160.501 209.15Z" fill="#E95F5C"/>
<path d="M160.501 223.05H82.6688C81.9542 223.05 81.3743 222.273 81.3743 221.313C81.3743 220.355 81.9536 219.577 82.6688 219.577H160.501C161.215 219.577 161.795 220.354 161.795 221.313C161.795 222.272 161.215 223.05 160.501 223.05Z" fill="#E95F5C"/>
<path d="M160.501 236.949H82.6688C81.9542 236.949 81.3743 236.172 81.3743 235.212C81.3743 234.254 81.9536 233.476 82.6688 233.476H160.501C161.215 233.476 161.795 234.253 161.795 235.212C161.795 236.172 161.215 236.949 160.501 236.949Z" fill="#E95F5C"/>
<path d="M259.364 259.83C263.838 264.267 265.265 272.855 263.752 280.037C262.239 287.22 258.272 293.081 253.753 297.435C249.234 301.788 244.118 304.865 239.201 308.358C227.309 316.807 216.438 327.838 207.141 340.889C209.191 325.723 211.936 310.587 216.912 296.695C221.888 282.802 229.245 270.131 239.037 262.068C242.116 259.532 245.47 257.445 249.047 256.77C252.625 256.093 256.459 256.948 259.364 259.83Z" fill="#7BC4B3"/>
<path d="M206.05 342.455C214.815 311.88 231.798 285.679 253.152 269.791C232.838 287.148 216.527 313.535 207.71 343.603C207.004 343.076 206.755 342.982 206.05 342.455Z" fill="#174555"/>
<path d="M266.822 310.149C268.774 315.372 267.504 322.046 264.552 326.342C261.599 330.639 257.283 332.847 252.978 333.741C248.674 334.634 244.29 334.352 239.935 334.456C229.401 334.707 218.9 337.245 208.963 341.942C214.397 332.326 220.309 323.061 227.45 315.725C234.591 308.389 243.073 303.036 252.038 302.056C254.857 301.748 257.749 301.884 260.425 303.111C263.102 304.339 265.554 306.758 266.822 310.149Z" fill="#32997E"/>
<path d="M207.788 342.518C221.977 325.333 240.751 315.106 259.855 314.154C241.089 316.625 222.736 327.302 208.644 344.108C208.29 343.405 208.142 343.221 207.788 342.518Z" fill="#174555"/>
<path d="M88.8385 170.271H81.7894H64.2282H57.1859C52.7309 170.271 49.1252 175.109 49.1252 181.076V202.694C49.1252 208.2 52.1992 212.75 56.1742 213.411V220.232L66.2516 213.498H88.8385C89.1819 213.498 89.5191 213.472 89.8501 213.411C93.8191 212.742 96.8924 208.2 96.8924 202.694V181.076C96.8924 175.108 93.2867 170.271 88.8385 170.271Z" fill="#265161"/>
<path d="M59.1062 191.572C59.1062 193.604 57.8789 195.25 56.3645 195.25C54.85 195.25 53.6228 193.604 53.6228 191.572C53.6228 189.54 54.85 187.894 56.3645 187.894C57.8783 187.894 59.1062 189.54 59.1062 191.572Z" fill="#E5E0C3"/>
<path d="M64.6864 195.25C66.2006 195.25 67.4281 193.603 67.4281 191.572C67.4281 189.541 66.2006 187.894 64.6864 187.894C63.1723 187.894 61.9448 189.541 61.9448 191.572C61.9448 193.603 63.1723 195.25 64.6864 195.25Z" fill="#E5E0C3"/>
<path d="M73.0085 195.25C74.5226 195.25 75.7501 193.603 75.7501 191.572C75.7501 189.541 74.5226 187.894 73.0085 187.894C71.4943 187.894 70.2668 189.541 70.2668 191.572C70.2668 193.603 71.4943 195.25 73.0085 195.25Z" fill="#E5E0C3"/>
<path d="M81.3312 195.25C82.8454 195.25 84.0728 193.603 84.0728 191.572C84.0728 189.541 82.8454 187.894 81.3312 187.894C79.817 187.894 78.5895 189.541 78.5895 191.572C78.5895 193.603 79.817 195.25 81.3312 195.25Z" fill="#E5E0C3"/>
<path d="M92.3948 191.572C92.3948 193.604 91.1669 195.25 89.6531 195.25C88.1387 195.25 86.9114 193.604 86.9114 191.572C86.9114 189.54 88.1393 187.894 89.6531 187.894C91.1676 187.894 92.3948 189.54 92.3948 191.572Z" fill="#E5E0C3"/>
<path d="M166.623 336.217L166.509 331.987C173.855 331.632 180.736 324.911 183.242 315.641C184.966 309.265 184.856 301.592 182.916 292.84C181.791 287.765 180.173 282.762 178.608 277.924C177.797 275.416 176.958 272.822 176.189 270.227C174.212 263.555 172.015 254.703 172.573 245.407C173.153 235.75 176.912 227.354 182.383 223.496L183.852 227.244C179.329 230.432 176.213 237.522 175.719 245.747C175.213 254.17 177.272 262.418 179.122 268.663C179.873 271.198 180.702 273.76 181.503 276.238C183.105 281.192 184.762 286.313 185.942 291.632C188.079 301.274 188.169 309.837 186.209 317.084C183.275 327.935 175.221 335.803 166.623 336.217Z" fill="#265161"/>
<path d="M223.491 165.927L192.752 219.289C186.649 229.882 175.256 231.846 167.353 223.658L164.26 220.44C162.903 219.035 162.139 216.968 162.039 214.835C161.95 213.023 162.335 211.168 163.225 209.627L166.842 203.344C168.779 199.983 172.396 199.356 174.908 201.955C176.644 203.759 179.15 203.328 180.494 200.998L207.206 154.631C208.544 152.294 208.222 148.932 206.486 147.129C203.98 144.53 203.513 139.678 205.451 136.316L209.068 130.033C209.952 128.5 211.189 127.535 212.508 127.188C214.08 126.773 215.771 127.23 217.135 128.644L220.234 131.862C228.13 140.051 229.594 155.335 223.491 165.927Z" fill="#E95F5C"/>
<path d="M213.789 157.647L184.319 208.815C178.979 218.087 169.423 220.458 162.039 214.836C161.95 213.023 162.335 211.169 163.225 209.628L166.842 203.345C168.779 199.984 172.396 199.357 174.908 201.956C176.644 203.76 179.15 203.328 180.494 200.999L207.206 154.631C208.544 152.295 208.222 148.933 206.486 147.13C203.98 144.53 203.513 139.678 205.451 136.317L209.068 130.034C209.952 128.501 211.189 127.536 212.508 127.189C218.435 135.352 219.135 148.374 213.789 157.647Z" fill="#C24E57"/>
<path d="M199.811 215.281C197.898 211.085 197.127 205.976 197.671 201.114C198.215 196.25 200.07 191.67 202.815 188.412C201.282 186.689 199.631 184.822 198.018 183.001C196.65 181.457 196.33 178.805 197.265 176.76C197.277 176.733 197.289 176.707 197.301 176.68C198.349 174.386 200.589 173.675 202.292 175.097L213.311 184.296C216.473 186.934 217.561 192.512 215.634 196.788C215.622 196.815 215.61 196.842 215.597 196.869C214.361 199.584 212.908 202.139 211.929 205.037C210.949 207.934 210.48 211.322 211.317 214.299C207.443 215.843 203.799 216.172 199.811 215.281Z" fill="#EC9270"/>
<path d="M197.11 186.751L190.163 179.721C188.814 178.356 188.546 175.783 189.563 173.973C190.58 172.164 192.498 171.803 193.847 173.168L200.795 180.197C202.143 181.562 202.412 184.136 201.395 185.945C200.377 187.755 198.459 188.115 197.11 186.751Z" fill="#EC9270"/>
<path d="M193.426 193.304L186.478 186.274C185.129 184.91 184.861 182.336 185.878 180.526C186.895 178.717 188.814 178.356 190.163 179.721L197.11 186.751C198.459 188.115 198.727 190.689 197.71 192.498C196.693 194.308 194.774 194.668 193.426 193.304Z" fill="#EC9270"/>
<path d="M189.741 199.857L182.794 192.827C181.445 191.463 181.177 188.889 182.194 187.079C183.211 185.27 185.129 184.909 186.478 186.274L193.426 193.304C194.774 194.668 195.043 197.242 194.026 199.051C193.009 200.861 191.09 201.221 189.741 199.857Z" fill="#EC9270"/>
<path d="M186.057 206.41L179.109 199.38C177.76 198.016 177.492 195.442 178.509 193.633C179.526 191.823 181.445 191.463 182.794 192.827L189.741 199.857C191.09 201.221 191.358 203.795 190.341 205.605C189.324 207.414 187.405 207.775 186.057 206.41Z" fill="#EC9270"/>
<path d="M213.388 230.599H192.679V344.999H213.388V230.599Z" fill="#265161"/>
<path d="M192.679 230.599V236.613H200.951C204.524 236.613 207.421 240.499 207.421 245.292V344.999H213.388V230.599H192.679Z" fill="#0C232B"/>
<path d="M214.336 210.097H191.731C189.915 210.097 188.443 212.071 188.443 214.507V227.135C188.443 229.571 189.915 231.546 191.731 231.546H214.336C216.152 231.546 217.624 229.571 217.624 227.135V214.507C217.624 212.071 216.152 210.097 214.336 210.097Z" fill="#F1EEFF"/>
<path d="M213.388 218.129C213.388 219.611 212.493 220.813 211.388 220.813C210.283 220.813 209.387 219.611 209.387 218.129C209.387 216.647 210.283 215.445 211.388 215.445C212.493 215.445 213.388 216.647 213.388 218.129Z" fill="#265161"/>
<path d="M194.18 144.271H168.974V162.108H194.18V144.271Z" fill="#FC9E4B"/>
<path d="M192.095 127.041H171.059V158.738H192.095V127.041Z" fill="#FCFBE9"/>
<path d="M168.974 144.271C168.164 145.225 167.641 146.608 167.641 148.167V165.073C167.641 166.632 168.163 168.016 168.974 168.969L181.577 156.62L168.974 144.271Z" fill="#FCC14B"/>
<path d="M194.179 144.271L181.576 156.62L194.179 168.969C194.989 168.015 195.511 166.632 195.511 165.073V148.167C195.512 146.608 194.99 145.225 194.179 144.271Z" fill="#FCC14B"/>
<path d="M168.974 168.97C169.656 169.772 170.54 170.275 171.519 170.275H191.634C192.613 170.275 193.497 169.772 194.18 168.97L181.577 156.621L168.974 168.97Z" fill="#FC9E4B"/>
<path d="M189.232 132.935H173.921V135.256H189.232V132.935Z" fill="#265161"/>
<path d="M189.232 138.115H173.921V140.436H189.232V138.115Z" fill="#265161"/>
<path d="M189.232 143.294H173.921V145.616H189.232V143.294Z" fill="#265161"/>
<path d="M254.899 230.599H227.26L222.331 235.212V186.909C222.331 182.482 225.006 178.892 228.306 178.892H254.899C258.199 178.892 260.874 182.481 260.874 186.909V222.582C260.874 227.01 258.199 230.599 254.899 230.599Z" fill="#FCC14B"/>
<path d="M241.602 211.157C236.919 211.157 233.109 206.045 233.109 199.764V196.213H250.095V199.764C250.095 206.045 246.285 211.157 241.602 211.157ZM234.372 197.905V199.763C234.372 205.111 237.615 209.462 241.602 209.462C245.589 209.462 248.833 205.111 248.833 199.763V197.905H234.372Z" fill="#265161"/>
<path d="M241.602 204.901C239.487 204.901 237.772 202.601 237.772 199.763V191.651C237.772 188.813 239.487 186.513 241.602 186.513C243.718 186.513 245.432 188.813 245.432 191.651V199.763C245.432 202.601 243.718 204.901 241.602 204.901Z" fill="#265161"/>
<path d="M242.234 210.31H240.971V219.865H242.234V210.31Z" fill="#265161"/>
<path d="M244.895 222.028H238.31C237.345 222.028 236.562 220.979 236.562 219.684C236.562 218.39 237.344 217.34 238.31 217.34H244.895C245.86 217.34 246.642 218.389 246.642 219.684C246.642 220.978 245.86 222.028 244.895 222.028Z" fill="#265161"/>
<path d="M51.5661 231.546H12.1808C11.7243 228.07 12.9787 224.277 15.3159 222.655C17.653 221.033 20.7498 221.689 22.6009 224.198C21.2205 221.677 21.4947 218.059 23.0209 215.694C24.547 213.328 27.3326 212.634 29.3905 214.106C29.141 210.902 30.5949 207.639 32.6016 205.87C34.6083 204.101 37.3543 203.974 39.4469 205.552C41.54 207.131 42.8852 210.345 42.8018 213.564C44.4991 213.331 46.4521 214.491 47.4224 216.373C48.3933 218.256 48.5316 220.853 47.7701 222.902C50.2746 223.396 51.4438 228.155 51.5661 231.546Z" fill="#BCE1E9"/>
<path d="M278.41 143.728H239.024C238.568 140.253 239.822 136.459 242.159 134.837C244.496 133.216 247.593 133.872 249.444 136.381C248.063 133.859 248.338 130.241 249.864 127.876C251.39 125.511 254.175 124.816 256.233 126.288C255.984 123.084 257.438 119.821 259.444 118.052C261.451 116.283 264.197 116.156 266.29 117.735C268.383 119.313 269.728 122.527 269.645 125.746C271.342 125.513 273.294 126.673 274.265 128.556C275.236 130.438 275.374 133.036 274.613 135.084C277.118 135.578 278.287 140.336 278.41 143.728Z" fill="#BCE1E9"/>
<path d="M199.706 93.868L196.091 96.9014L200.328 97.8485L199.706 93.868Z" fill="#FCC14B"/>
<path d="M224.221 122.743L219.632 136.161L220.779 136.866L225.368 123.449L224.221 122.743Z" fill="#FCC14B"/>
<path d="M220.601 120.318L216.012 133.735L217.16 134.442L221.749 121.024L220.601 120.318Z" fill="#FCC14B"/>
<path d="M205.348 106.205C203.718 103.088 200.455 101.623 199.569 98.0068C199.084 96.0282 199.484 93.7679 200.428 92.1141C201.371 90.4602 202.802 89.3839 204.309 88.8793C206.879 88.0193 209.727 88.8039 211.837 90.9532C213.392 92.5383 214.509 94.7539 215.83 96.6844C218.469 100.545 221.995 103.3 225.801 104.475C227.453 104.984 229.153 105.204 230.778 105.85C232.402 106.496 233.997 107.645 234.918 109.554C236.377 112.584 235.696 116.844 233.899 119.529C232.102 122.212 229.442 123.567 226.806 124.281C223.035 125.302 219.03 125.175 215.444 123.31C211.857 121.445 208.733 117.731 207.333 112.924C206.676 110.672 206.382 108.186 205.348 106.205Z" fill="#7BC4B3"/>
<path d="M217.683 99.0789C216.712 103.189 216.485 107.611 217.027 111.861C217.288 113.918 217.773 116.035 218.9 117.471C220 118.872 221.661 119.428 223.123 118.886C224.585 118.345 225.796 116.724 226.205 114.764C226.363 116.478 228.098 117.474 229.288 116.814C230.478 116.155 231.13 114.305 231.07 112.58C231.011 110.855 230.366 109.257 229.579 107.89C228.583 106.159 227.336 104.689 225.929 103.587C223.46 101.653 220.49 99.8047 217.683 99.0789Z" fill="#32997E"/>
<path d="M232.512 110.645C231.903 105.36 233.3 99.7302 236.147 95.9875C237.254 94.5318 238.881 93.3005 240.298 94.1432C241.516 94.8665 242.043 96.9081 241.851 98.6762C241.66 100.444 240.916 102.004 240.19 103.502C241.448 102.599 242.939 101.913 244.366 101.896C245.793 101.879 247.337 103.099 247.524 104.996C247.67 106.472 246.949 107.916 246 108.687C245.05 109.457 243.913 109.677 242.806 109.784C243.841 110.067 245.048 111.744 245.356 113.1C245.664 114.455 245.377 116.024 244.636 117.034C243.75 118.241 242.387 118.563 241.125 118.505C237.395 118.333 233.081 115.594 232.512 110.645Z" fill="#7BC4B3"/>
<path d="M207.152 93.3494C207.152 94.352 206.546 95.1648 205.799 95.1648C205.051 95.1648 204.445 94.352 204.445 93.3494C204.445 92.3469 205.051 91.5341 205.799 91.5341C206.546 91.5341 207.152 92.3469 207.152 93.3494Z" fill="#265161"/>
<path d="M56.2644 272.952C52.839 272.131 49.9003 269.249 47.2685 266.195C44.6368 263.142 42.1224 259.789 39.0151 257.689C35.9078 255.589 31.9802 254.952 29.0366 257.441C25.4852 260.444 24.5056 267.07 25.5525 272.524C26.6 277.978 29.2163 282.599 31.6072 287.229C33.998 291.859 36.2851 296.926 36.5069 302.55C36.7447 308.592 34.5533 314.58 35.2975 320.547C36.1845 327.656 41.1231 332.811 46.3026 334.727C51.482 336.642 56.9629 336.019 62.3345 335.841C67.7061 335.663 73.3376 336.036 77.9897 339.642C79.3071 324.037 78.9804 308.184 77.0237 292.7C76.5395 288.87 75.9428 285.009 74.6334 281.545C73.3241 278.081 71.2117 275.012 68.4787 273.731C64.6099 271.918 60.2988 273.918 56.2644 272.952Z" fill="#FCC14B"/>
<path d="M74.9478 332.807C68.2934 306.716 53.5332 284.537 34.9603 272.72C52.327 288.954 66.1329 311.359 75.4944 336.826C75.4129 335.303 75.3172 334.254 74.9478 332.807Z" fill="#174555"/>
<path d="M78.0323 334.463C78.036 315.012 72.1932 295.669 62.0967 281.708C70.6658 296.698 75.6235 315.895 75.5575 334.785C76.3962 334.727 77.1942 334.524 78.0323 334.463Z" fill="#174555"/>
<path d="M78.931 333.977C68.3151 320.727 53.7772 313.296 39.2807 313.708C53.2991 315.497 67.1545 323.699 77.4215 336.628C77.9607 335.763 78.3924 334.841 78.931 333.977Z" fill="#174555"/>
<path d="M117.604 245.871H106.678V264.497H117.604V245.871Z" fill="#E95F5C"/>
<path d="M138.189 245.871H127.262V264.497H138.189V245.871Z" fill="#E95F5C"/>
<path d="M117.604 254.986H106.678V264.497H117.604V254.986Z" fill="#C24E57"/>
<path d="M138.189 254.986H127.262V264.497H138.189V254.986Z" fill="#C24E57"/>
<path d="M156.756 278.446V278.326C156.756 268.073 150.56 259.761 142.917 259.761H101.949C94.3057 259.761 88.1096 268.073 88.1096 278.326V278.446C88.1096 283.059 86.0313 287.123 82.9122 289.067C76.9972 292.753 72.8954 300.79 72.8954 310.115V336.791C72.8954 341.324 75.6347 344.999 79.0137 344.999H165.851C169.23 344.999 171.969 341.324 171.969 336.791V310.115C171.969 300.79 167.867 292.753 161.952 289.067C158.834 287.124 156.756 283.06 156.756 278.446Z" fill="#E95F5C"/>
<path d="M161.88 289.022C158.781 287.114 156.756 283.02 156.756 278.446V278.326C156.756 278.299 156.755 278.272 156.754 278.244H96.4373C94.4621 278.244 92.8606 280.393 92.8606 283.043C92.8606 285.692 94.4621 287.841 96.4373 287.841H143.544C147.063 287.841 150.304 290.404 152.01 294.533C155.583 303.187 150.918 313.808 143.544 313.808H72.8962V336.792C72.8962 341.325 75.6354 345 79.0145 345H165.851C169.23 345 171.97 341.325 171.97 336.792V310.116C171.97 300.751 167.835 292.686 161.88 289.022Z" fill="#C24E57"/>
<path d="M130.077 319.543C138.024 313.722 140.95 300.359 136.61 289.698C132.271 279.036 122.311 275.112 114.363 280.933C106.415 286.754 103.49 300.116 107.829 310.778C112.169 321.439 122.129 325.364 130.077 319.543Z" fill="#174555"/>
<path d="M114.806 295.428C114.11 297.363 112.371 298.178 110.929 297.244C109.487 296.31 108.879 293.977 109.575 292.042C110.271 290.106 112.01 289.292 113.453 290.225C114.895 291.16 115.502 293.493 114.806 295.428Z" fill="#E95F5C"/>
<path d="M134.875 308.417C134.179 310.353 132.44 311.167 130.997 310.234C129.555 309.3 128.948 306.967 129.644 305.032C130.34 303.097 132.078 302.282 133.521 303.216C134.964 304.149 135.571 306.483 134.875 308.417Z" fill="#E95F5C"/>
<path d="M129.682 288.461C128.986 290.396 127.247 291.211 125.804 290.278C124.362 289.344 123.755 287.011 124.451 285.075C125.147 283.14 126.886 282.326 128.329 283.259C129.771 284.193 130.378 286.526 129.682 288.461Z" fill="#E95F5C"/>
<path d="M119.999 315.385C119.303 317.319 117.565 318.134 116.122 317.201C114.68 316.267 114.072 313.934 114.767 311.999C115.463 310.064 117.203 309.25 118.645 310.183C120.088 311.116 120.695 313.449 119.999 315.385Z" fill="#E95F5C"/>
<path d="M114.322 306.849C113.985 307.787 113.396 308.492 112.663 308.834C111.152 309.542 109.492 308.468 108.964 306.44C108.708 305.458 108.753 304.4 109.09 303.462C109.427 302.525 110.016 301.82 110.748 301.477C112.26 300.77 113.92 301.843 114.447 303.871C114.704 304.854 114.659 305.912 114.322 306.849Z" fill="#E95F5C"/>
<path d="M135.36 296.996C135.023 297.934 134.434 298.639 133.701 298.982C132.19 299.689 130.529 298.615 130.002 296.588C129.746 295.605 129.791 294.548 130.128 293.61C130.465 292.673 131.054 291.968 131.786 291.625C133.298 290.917 134.958 291.991 135.485 294.019C135.742 295.002 135.696 296.059 135.36 296.996Z" fill="#E95F5C"/>
<path d="M121.168 287.812C120.831 288.75 120.242 289.455 119.509 289.798C117.998 290.505 116.338 289.432 115.81 287.404C115.555 286.422 115.599 285.364 115.936 284.426C116.274 283.489 116.862 282.784 117.595 282.441C119.106 281.734 120.766 282.807 121.294 284.835C121.551 285.817 121.506 286.875 121.168 287.812Z" fill="#E95F5C"/>
<path d="M128.513 316.033C128.176 316.971 127.588 317.677 126.854 318.019C125.343 318.726 123.683 317.653 123.155 315.625C122.9 314.642 122.944 313.585 123.281 312.647C123.619 311.71 124.207 311.005 124.94 310.662C126.451 309.954 128.111 311.028 128.639 313.056C128.895 314.039 128.85 315.096 128.513 316.033Z" fill="#E95F5C"/>
<path d="M139.04 309.112L131.294 306.099L137.873 312.359L139.04 309.112Z" fill="#174555"/>
<path d="M67.6351 16.5785C67.6351 15.3275 67.8661 14.1054 68.328 12.9122C68.8091 11.6997 69.5019 10.6027 70.4065 9.62116C71.311 8.63963 72.408 7.86018 73.6975 7.28281C75.0062 6.6862 76.4785 6.38789 78.1144 6.38789C80.0774 6.38789 81.7903 6.80167 83.253 7.62924C84.7156 8.43755 85.803 9.51531 86.5151 10.8625L82.2137 13.9226C81.9635 13.249 81.5978 12.7293 81.1167 12.3637C80.6548 11.998 80.1448 11.7478 79.5867 11.6131C79.0478 11.4591 78.5185 11.3821 77.9989 11.3821C77.1906 11.3821 76.4881 11.5457 75.8915 11.8729C75.3141 12.1808 74.833 12.5946 74.4481 13.1143C74.0824 13.6339 73.8033 14.2113 73.6109 14.8464C73.4377 15.4815 73.3511 16.1166 73.3511 16.7517C73.3511 17.4638 73.4569 18.147 73.6686 18.8013C73.8803 19.4557 74.1883 20.0427 74.5924 20.5623C74.9966 21.0627 75.4873 21.4572 76.0647 21.7459C76.6613 22.0346 77.3253 22.179 78.0566 22.179C78.5763 22.179 79.1055 22.102 79.6444 21.948C80.1833 21.7748 80.674 21.5054 81.1167 21.1397C81.5593 20.774 81.8961 20.2833 82.1271 19.6674L86.7172 22.4099C86.313 23.4107 85.6394 24.2671 84.6964 24.9792C83.7534 25.6913 82.6852 26.2398 81.492 26.6247C80.2988 26.9904 79.1151 27.1732 77.9412 27.1732C76.4208 27.1732 75.0254 26.8749 73.7552 26.2783C72.5043 25.6624 71.4169 24.8541 70.4931 23.8533C69.5885 22.8333 68.8861 21.6978 68.3857 20.4469C67.8853 19.1766 67.6351 17.8872 67.6351 16.5785ZM97.6486 27.1732C96.0897 27.1732 94.6752 26.8845 93.405 26.3072C92.1348 25.7105 91.0378 24.9215 90.114 23.9399C89.2094 22.9392 88.507 21.8229 88.0066 20.5912C87.5254 19.3402 87.2849 18.0508 87.2849 16.7228C87.2849 15.3564 87.5447 14.0573 88.0643 12.8256C88.5839 11.5938 89.3057 10.4968 90.2294 9.53456C91.1725 8.55303 92.2791 7.7832 93.5493 7.22508C94.8388 6.66695 96.2437 6.38789 97.7641 6.38789C99.323 6.38789 100.738 6.6862 102.008 7.28281C103.278 7.86018 104.365 8.64926 105.27 9.65003C106.174 10.6508 106.867 11.7767 107.348 13.0276C107.849 14.2594 108.099 15.5296 108.099 16.8383C108.099 18.1855 107.839 19.4749 107.32 20.7067C106.819 21.9384 106.097 23.045 105.154 24.0265C104.231 24.9888 103.134 25.7587 101.863 26.336C100.593 26.8941 99.1883 27.1732 97.6486 27.1732ZM93.0008 16.7806C93.0008 17.4734 93.097 18.147 93.2895 18.8013C93.482 19.4365 93.7706 20.0138 94.1556 20.5335C94.5405 21.0338 95.0216 21.438 95.599 21.7459C96.1956 22.0346 96.8981 22.179 97.7064 22.179C98.5147 22.179 99.2172 22.025 99.8138 21.7171C100.41 21.4091 100.892 20.9954 101.257 20.4757C101.642 19.9368 101.921 19.3498 102.094 18.7147C102.287 18.0604 102.383 17.3964 102.383 16.7228C102.383 16.03 102.287 15.366 102.094 14.7309C101.902 14.0958 101.613 13.528 101.228 13.0276C100.843 12.508 100.353 12.1039 99.756 11.8152C99.1594 11.5265 98.4666 11.3821 97.6775 11.3821C96.8692 11.3821 96.1667 11.5361 95.5701 11.844C94.9927 12.152 94.5116 12.5657 94.1267 13.0854C93.7418 13.5858 93.4531 14.1631 93.2606 14.8175C93.0874 15.4526 93.0008 16.107 93.0008 16.7806ZM116.114 16.9249V27H110.485V6.50336H114.873L123.101 16.9249V6.50336H128.73V27H124.255L116.114 16.9249ZM148.213 11.411H142.324V27H136.695V11.411H130.777V6.50336H148.213V11.411ZM153.109 6.50336H159.403L165.927 27H160.211L158.97 22.9873H153.513L152.301 27H146.556L153.109 6.50336ZM158.075 19.2344L156.256 12.0172L154.351 19.2344H158.075ZM165.658 16.5785C165.658 15.3275 165.889 14.1054 166.351 12.9122C166.832 11.6997 167.525 10.6027 168.43 9.62116C169.334 8.63963 170.431 7.86018 171.721 7.28281C173.029 6.6862 174.502 6.38789 176.138 6.38789C178.101 6.38789 179.814 6.80167 181.276 7.62924C182.739 8.43755 183.826 9.51531 184.538 10.8625L180.237 13.9226C179.987 13.249 179.621 12.7293 179.14 12.3637C178.678 11.998 178.168 11.7478 177.61 11.6131C177.071 11.4591 176.542 11.3821 176.022 11.3821C175.214 11.3821 174.511 11.5457 173.915 11.8729C173.337 12.1808 172.856 12.5946 172.471 13.1143C172.106 13.6339 171.827 14.2113 171.634 14.8464C171.461 15.4815 171.374 16.1166 171.374 16.7517C171.374 17.4638 171.48 18.147 171.692 18.8013C171.904 19.4557 172.211 20.0427 172.616 20.5623C173.02 21.0627 173.511 21.4572 174.088 21.7459C174.685 22.0346 175.349 22.179 176.08 22.179C176.599 22.179 177.129 22.102 177.668 21.948C178.206 21.7748 178.697 21.5054 179.14 21.1397C179.583 20.774 179.919 20.2833 180.15 19.6674L184.74 22.4099C184.336 23.4107 183.663 24.2671 182.72 24.9792C181.777 25.6913 180.708 26.2398 179.515 26.6247C178.322 26.9904 177.138 27.1732 175.964 27.1732C174.444 27.1732 173.049 26.8749 171.778 26.2783C170.527 25.6624 169.44 24.8541 168.516 23.8533C167.612 22.8333 166.909 21.6978 166.409 20.4469C165.909 19.1766 165.658 17.8872 165.658 16.5785ZM202.708 11.411H196.819V27H191.19V11.411H185.272V6.50336H202.708V11.411ZM219.374 27.1732C217.739 27.1732 216.334 26.9038 215.16 26.3649C213.986 25.826 213.023 25.0851 212.273 24.142C211.542 23.199 211.003 22.1212 210.656 20.9087C210.31 19.677 210.137 18.3876 210.137 17.0404V6.50336H215.766V17.0404C215.766 17.714 215.833 18.3587 215.968 18.9746C216.103 19.5904 216.314 20.1389 216.603 20.6201C216.892 21.1012 217.257 21.4861 217.7 21.7748C218.162 22.0442 218.72 22.179 219.374 22.179C220.048 22.179 220.616 22.0442 221.078 21.7748C221.54 21.4861 221.905 21.1012 222.175 20.6201C222.463 20.1197 222.675 19.5615 222.81 18.9457C222.945 18.3298 223.012 17.6947 223.012 17.0404V6.50336H228.641V17.0404C228.641 18.4645 228.449 19.7925 228.064 21.0242C227.698 22.2559 227.14 23.3337 226.39 24.2575C225.639 25.1813 224.677 25.903 223.503 26.4226C222.348 26.923 220.972 27.1732 219.374 27.1732ZM244.293 13.2009C244.293 13.2009 244.129 13.1046 243.802 12.9122C243.475 12.7197 243.042 12.508 242.503 12.2771C241.964 12.0269 241.377 11.8055 240.742 11.6131C240.107 11.4206 239.481 11.3244 238.865 11.3244C238.384 11.3244 237.99 11.4014 237.682 11.5554C237.374 11.7093 237.22 11.9691 237.22 12.3348C237.22 12.6812 237.374 12.9603 237.682 13.172C237.99 13.3837 238.423 13.5761 238.981 13.7494C239.558 13.9226 240.242 14.1343 241.031 14.3845C242.301 14.7694 243.398 15.212 244.322 15.7124C245.245 16.2128 245.957 16.8575 246.458 17.6466C246.958 18.4164 247.208 19.4461 247.208 20.7355C247.208 21.9673 246.987 23.0065 246.544 23.8533C246.102 24.6809 245.505 25.3449 244.755 25.8453C244.004 26.3456 243.167 26.7113 242.243 26.9423C241.319 27.154 240.376 27.2598 239.414 27.2598C238.432 27.2598 237.403 27.1636 236.325 26.9711C235.267 26.7594 234.237 26.4804 233.236 26.1339C232.235 25.7683 231.321 25.3449 230.494 24.8637L232.919 19.9272C232.919 19.9272 233.111 20.0427 233.496 20.2736C233.881 20.5046 234.391 20.7644 235.026 21.0531C235.661 21.3418 236.364 21.6016 237.133 21.8325C237.922 22.0635 238.711 22.179 239.501 22.179C240.116 22.179 240.54 22.102 240.771 21.948C241.021 21.7748 241.146 21.5535 241.146 21.284C241.146 20.8799 240.934 20.5719 240.511 20.3602C240.088 20.1293 239.529 19.9176 238.837 19.7251C238.163 19.5134 237.412 19.2729 236.585 19.0034C235.392 18.5993 234.41 18.147 233.64 17.6466C232.87 17.127 232.303 16.5207 231.937 15.8279C231.571 15.1158 231.389 14.2594 231.389 13.2586C231.389 11.7382 231.745 10.468 232.457 9.44795C233.169 8.42793 234.102 7.6581 235.257 7.13847C236.431 6.59959 237.691 6.33015 239.039 6.33015C240.039 6.33015 241.002 6.45525 241.926 6.70544C242.869 6.93639 243.744 7.22508 244.553 7.5715C245.38 7.91792 246.102 8.2451 246.718 8.55303L244.293 13.2009Z" fill="black"/>
</svg>
